<?xml version="1.0" encoding="UTF-8"?>
<svg viewBox="-410 -260 820 520" class="w-full h-full" style="overflow: visible; font-family: system-ui, -apple-system, sans-serif;" xmlns="http://www.w3.org/2000/svg"><rect x="-410" y="-260" width="820" height="520" fill="#F5F1EA"/><g><g fill="none" stroke="#3D3530" stroke-width="2.8" stroke-linecap="round" stroke-linejoin="round"><path d="M -315 55 L -341 55 L -341 79 Q -341 90 -352 90 L -364 90 Q -375 90 -375 79 L -375 17 Q -375 6 -364 6 L -352 6 Q -341 6 -341 17 L -341 41 L -321 41"/><path d="M 315 55 L 341 55 L 341 79 Q 341 90 352 90 L 364 90 Q 375 90 375 79 L 375 17 Q 375 6 364 6 L 352 6 Q 341 6 341 17 L 341 41 L 321 41"/></g><text x="-358" y="-19" text-anchor="middle" dominant-baseline="middle" font-size="14" fill="#0042aa" style="font-family: system-ui, -apple-system, sans-serif; letter-spacing: 0.02em;">5' ITR</text><text x="358" y="-19" text-anchor="middle" dominant-baseline="middle" font-size="14" fill="#0042aa" style="font-family: system-ui, -apple-system, sans-serif; letter-spacing: 0.02em;">3' ITR</text></g><g style="pointer-events: none;"><path d="M -304.71 12 L 10.500000000000057 12 L 10.500000000000057 54 L -304.71 54 Z" fill="#8c2981" stroke="#8c2981" stroke-width="0.5" stroke-opacity="0.625" fill-opacity="0.25"/><g><line x1="-304.71" y1="8" x2="-304.71" y2="77" stroke="#8c2981" stroke-width="1" stroke-dasharray="3 3" opacity="0.7"/><line x1="10.500000000000057" y1="8" x2="10.500000000000057" y2="77" stroke="#8c2981" stroke-width="1" stroke-dasharray="3 3" opacity="0.7"/></g><g><text x="-304.71" y="0" text-anchor="middle" dominant-baseline="middle" font-size="10" fill="#8c2981" style="font-family: system-ui, -apple-system, sans-serif; font-weight: 600; letter-spacing: 0.02em;">50</text><text x="10.500000000000057" y="0" text-anchor="middle" dominant-baseline="middle" font-size="10" fill="#8c2981" style="font-family: system-ui, -apple-system, sans-serif; font-weight: 600; letter-spacing: 0.02em;">1550</text></g><text x="-49.389899999999926" y="29" text-anchor="middle" dominant-baseline="middle" font-size="13" fill="#8c2981" style="font-family: system-ui, -apple-system, sans-serif; font-weight: 600; letter-spacing: 0.08em; text-transform: uppercase;">Region X</text></g><g style="pointer-events: none;"><path d="M -310.8 88.5 L 142.79999999999995 88.5 Q 146.99999999999994 88.5 146.99999999999994 92.7 L 146.99999999999994 105.3 Q 146.99999999999994 109.5 142.79999999999995 109.5 L -310.8 109.5 Q -315 109.5 -315 105.3 L -315 92.7 Q -315 88.5 -310.8 88.5 Z" fill="#7B96B8" stroke="#7B96B8" stroke-width="0.5" stroke-opacity="0.625" fill-opacity="0.25"/><text x="-84.00000000000003" y="99" text-anchor="middle" dominant-baseline="middle" font-size="10" fill="#7B96B8" style="font-family: system-ui, -apple-system, sans-serif; font-weight: 600; letter-spacing: 0.08em; text-transform: uppercase;">Region Y</text></g><g style="pointer-events: none;"><path d="M 157.29000000000002 88.5 L 315 88.5 L 315 109.5 L 157.29000000000002 109.5 Z" fill="#de4968" stroke="#de4968" stroke-width="0.5" stroke-opacity="0.625" fill-opacity="0.25"/><g><line x1="157.29000000000002" y1="113.5" x2="157.29000000000002" y2="77" stroke="#de4968" stroke-width="1" stroke-dasharray="3 3" opacity="0.7"/><line x1="315" y1="113.5" x2="315" y2="77" stroke="#de4968" stroke-width="1" stroke-dasharray="3 3" opacity="0.7"/></g><g><text x="157.29000000000002" y="121.5" text-anchor="middle" dominant-baseline="middle" font-size="10" fill="#de4968" style="font-family: system-ui, -apple-system, sans-serif; font-weight: 600; letter-spacing: 0.02em;">2250</text><text x="315" y="121.5" text-anchor="middle" dominant-baseline="middle" font-size="10" fill="#de4968" style="font-family: system-ui, -apple-system, sans-serif; font-weight: 600; letter-spacing: 0.02em;">3000</text></g><text x="236.145" y="99" text-anchor="middle" dominant-baseline="middle" font-size="10" fill="#de4968" style="font-family: system-ui, -apple-system, sans-serif; font-weight: 600; letter-spacing: 0.08em; text-transform: uppercase;">Region Z</text></g><line x1="-315" y1="55" x2="315" y2="55" stroke="#3D3530" stroke-width="2.8" stroke-linecap="butt"/><g><path d="M -265.85999999999996 44.5 L -25.2 44.5 L -10.5 55 L -25.2 65.5 L -265.85999999999996 65.5 Q -273.21 65.5 -273.21 58.15 L -273.21 51.85 Q -273.21 44.5 -265.85999999999996 44.5 Z" fill="#ffffff" stroke="#61177c" stroke-width="2.9" stroke-linejoin="round" stroke-linecap="round" class="" style="transition: filter 0.15s, opacity 0.15s;"/><g style="pointer-events: none;"><line x1="-218.04089999999997" y1="42.5" x2="-218.04089999999997" y2="-17.5" stroke="#3D3530" stroke-width="0.6" opacity="0.55"/><text x="-218.04089999999997" y="-25.5" text-anchor="middle" dominant-baseline="middle" font-size="11.5" fill="#1F1B16" style="font-family: system-ui, -apple-system, sans-serif; font-weight: 500; letter-spacing: 0.01em;">Gene A</text></g></g><g><path d="M 36.18999999999996 26 L 131.6 26 Q 136.5 26 136.5 30.9 L 136.5 35.1 Q 136.5 40 131.6 40 L 36.18999999999996 40 Q 31.289999999999964 40 31.289999999999964 35.1 L 31.289999999999964 30.9 Q 31.289999999999964 26 36.18999999999996 26 Z" fill="#35b779" stroke="#1a5b3c" stroke-width="2.1" stroke-linejoin="round" stroke-linecap="round" class="" style="transition: filter 0.15s, opacity 0.15s;"/><g style="pointer-events: none;"><line x1="83.89499999999998" y1="24" x2="83.89499999999998" y2="-11" stroke="#3D3530" stroke-width="0.6" opacity="0.55"/><text x="83.89499999999998" y="-19" text-anchor="middle" dominant-baseline="middle" font-size="11.5" fill="#1F1B16" style="font-family: system-ui, -apple-system, sans-serif; font-weight: 500; letter-spacing: 0.01em;">Element A</text></g></g><g><line x1="167.78999999999996" y1="55" x2="231" y2="55" stroke="#3e4a89" stroke-width="15.049999999999999" stroke-linecap="round" class="" style="transition: 0.15s;"/><g style="pointer-events: none;"><line x1="186.753" y1="45.475" x2="186.753" y2="23.475" stroke="#3D3530" stroke-width="0.6" opacity="0.55"/><text x="186.753" y="15.475000000000001" text-anchor="middle" dominant-baseline="middle" font-size="11.5" fill="#1F1B16" style="font-family: system-ui, -apple-system, sans-serif; font-weight: 500; letter-spacing: 0.01em;">Signal</text></g></g><g><path d="M 251.78999999999996 11 L 260.60999999999996 4.7 L 300.09 4.7 Q 304.5 4.7 304.5 9.11 L 304.5 12.89 Q 304.5 17.3 300.09 17.3 L 260.60999999999996 17.3 Z" fill="#bd3786" stroke="#5e1b43" stroke-width="2.3" stroke-linejoin="round" stroke-linecap="round" class="" style="transition: filter 0.15s, opacity 0.15s;"/><g style="pointer-events: none;"><line x1="278.145" y1="2.6999999999999993" x2="278.145" y2="-48.3" stroke="#3D3530" stroke-width="0.6" opacity="0.55"/><text x="278.145" y="-56.3" text-anchor="middle" dominant-baseline="middle" font-size="11.5" fill="#1F1B16" style="font-family: system-ui, -apple-system, sans-serif; font-weight: 500; letter-spacing: 0.01em;">Regulatory</text></g></g><text x="0" y="-96" text-anchor="middle" font-size="32" fill="#1F1B16" style="font-family: system-ui, -apple-system, sans-serif; font-style: italic;">Cargo</text><text x="0" y="-68" text-anchor="middle" font-size="11" fill="#8A8174" style="font-family: system-ui, -apple-system, sans-serif; letter-spacing: 0.05em;">3.000 bp</text></svg>