<?xml version="1.0" encoding="UTF-8"?>
<svg viewBox="-410 -410 820 820" class="w-full h-full" style="overflow: visible; font-family: Georgia, &quot;Times New Roman&quot;, serif;" xmlns="http://www.w3.org/2000/svg"><rect x="-410" y="-410" width="820" height="820" fill="#F5F1EA"/><g transform="rotate(0)"><circle cx="0" cy="0" r="200" fill="none" stroke="#3D3530" stroke-width="3.7" opacity="0.85"/><g><line x1="1.2001538631644062e-14" y1="-196" x2="1.1634144591899855e-14" y2="-190" stroke="#3D3530" stroke-width="0.8" opacity="0.55"/><text x="1.0287033112837767e-14" y="-168" font-size="14" fill="#8A8174" text-anchor="middle" dominant-baseline="middle" transform="rotate(0 1.0287033112837767e-14 -168)" style="font-family: Georgia, &quot;Times New Roman&quot;, serif; letter-spacing: 0.02em;">1</text></g><g><line x1="97.64428064654021" y1="-169.94585742824006" x2="94.65517001450326" y2="-164.7434332212531" stroke="#3D3530" stroke-width="0.8" opacity="0.55"/><text x="83.69509769703446" y="-145.66787779563433" font-size="14" fill="#8A8174" text-anchor="middle" dominant-baseline="middle" transform="rotate(0 83.69509769703446 -145.66787779563433)" style="font-family: Georgia, &quot;Times New Roman&quot;, serif; letter-spacing: 0.02em;">250</text></g><g><line x1="169.53535628828106" y1="-98.35528947751413" x2="164.34549844272144" y2="-95.3444132690188" stroke="#3D3530" stroke-width="0.8" opacity="0.55"/><text x="145.31601967566948" y="-84.30453383786926" font-size="14" fill="#8A8174" text-anchor="middle" dominant-baseline="middle" transform="rotate(0 145.31601967566948 -84.30453383786926)" style="font-family: Georgia, &quot;Times New Roman&quot;, serif; letter-spacing: 0.02em;">500</text></g><g><line x1="195.99957012405434" y1="-0.41050113995897175" x2="189.99958328352207" y2="-0.3979347785316563" stroke="#3D3530" stroke-width="0.8" opacity="0.55"/><text x="167.99963153490373" y="-0.35185811996483296" font-size="14" fill="#8A8174" text-anchor="middle" dominant-baseline="middle" transform="rotate(0 167.99963153490373 -0.35185811996483296)" style="font-family: Georgia, &quot;Times New Roman&quot;, serif; letter-spacing: 0.02em;">750</text></g><g><line x1="169.94585742824006" y1="97.6442806465402" x2="164.7434332212531" y2="94.65517001450326" stroke="#3D3530" stroke-width="0.8" opacity="0.55"/><text x="145.66787779563433" y="83.69509769703446" font-size="14" fill="#8A8174" text-anchor="middle" dominant-baseline="middle" transform="rotate(0 145.66787779563433 83.69509769703446)" style="font-family: Georgia, &quot;Times New Roman&quot;, serif; letter-spacing: 0.02em;">1000</text></g><g><line x1="98.35528947751418" y1="169.53535628828104" x2="95.34441326901884" y2="164.3454984427214" stroke="#3D3530" stroke-width="0.8" opacity="0.55"/><text x="84.30453383786929" y="145.31601967566945" font-size="14" fill="#8A8174" text-anchor="middle" dominant-baseline="middle" transform="rotate(0 84.30453383786929 145.31601967566945)" style="font-family: Georgia, &quot;Times New Roman&quot;, serif; letter-spacing: 0.02em;">1250</text></g><g><line x1="0.4105011399590709" y1="195.99957012405434" x2="0.3979347785317524" y2="189.99958328352207" stroke="#3D3530" stroke-width="0.8" opacity="0.55"/><text x="0.3518581199649179" y="167.99963153490373" font-size="14" fill="#8A8174" text-anchor="middle" dominant-baseline="middle" transform="rotate(0 0.3518581199649179 167.99963153490373)" style="font-family: Georgia, &quot;Times New Roman&quot;, serif; letter-spacing: 0.02em;">1500</text></g><g><line x1="-97.6442806465402" y1="169.94585742824006" x2="-94.65517001450326" y2="164.74343322125313" stroke="#3D3530" stroke-width="0.8" opacity="0.55"/><text x="-83.69509769703446" y="145.66787779563435" font-size="14" fill="#8A8174" text-anchor="middle" dominant-baseline="middle" transform="rotate(0 -83.69509769703446 145.66787779563435)" style="font-family: Georgia, &quot;Times New Roman&quot;, serif; letter-spacing: 0.02em;">1750</text></g><g><line x1="-169.53535628828104" y1="98.35528947751418" x2="-164.3454984427214" y2="95.34441326901884" stroke="#3D3530" stroke-width="0.8" opacity="0.55"/><text x="-145.31601967566945" y="84.30453383786929" font-size="14" fill="#8A8174" text-anchor="middle" dominant-baseline="middle" transform="rotate(0 -145.31601967566945 84.30453383786929)" style="font-family: Georgia, &quot;Times New Roman&quot;, serif; letter-spacing: 0.02em;">2000</text></g><g><line x1="-195.99957012405434" y1="0.41050113995899584" x2="-189.99958328352207" y2="0.39793477853167963" stroke="#3D3530" stroke-width="0.8" opacity="0.55"/><text x="-167.99963153490373" y="0.35185811996485356" font-size="14" fill="#8A8174" text-anchor="middle" dominant-baseline="middle" transform="rotate(0 -167.99963153490373 0.35185811996485356)" style="font-family: Georgia, &quot;Times New Roman&quot;, serif; letter-spacing: 0.02em;">2250</text></g><g><line x1="-169.94585742824012" y1="-97.64428064654011" x2="-164.74343322125316" y2="-94.65517001450317" stroke="#3D3530" stroke-width="0.8" opacity="0.55"/><text x="-145.66787779563438" y="-83.69509769703438" font-size="14" fill="#8A8174" text-anchor="middle" dominant-baseline="middle" transform="rotate(0 -145.66787779563438 -83.69509769703438)" style="font-family: Georgia, &quot;Times New Roman&quot;, serif; letter-spacing: 0.02em;">2500</text></g><g><line x1="-98.35528947751419" y1="-169.535356288281" x2="-95.34441326901886" y2="-164.34549844272138" stroke="#3D3530" stroke-width="0.8" opacity="0.55"/><text x="-84.30453383786931" y="-145.31601967566945" font-size="14" fill="#8A8174" text-anchor="middle" dominant-baseline="middle" transform="rotate(0 -84.30453383786931 -145.31601967566945)" style="font-family: Georgia, &quot;Times New Roman&quot;, serif; letter-spacing: 0.02em;">2750</text></g><g><path d="M 97.1633095913229 -207.36511584463943 A 229 229 0 0 1 191.02440442542513 126.29598930255712 L 179.60177275123834 130.48832600892905 L 179.34605655662185 118.57483711812131 A 215 215 0 0 0 91.49436789080293 -194.5604806847023 A 4.8999999999999995 4.8999999999999995 0 0 1 89.02045175652837 -201.0755310053006 L 90.72070595105961 -204.91599135192297 A 4.8999999999999995 4.8999999999999995 0 0 1 97.1633095913229 -207.36511584463943 Z" fill="#46039f" stroke="#23014f" stroke-width="1.3" stroke-linejoin="round" stroke-linecap="round" opacity="1" class="" style="transition: filter 0.15s, opacity 0.15s;"/><g style="pointer-events: none;"><line x1="223.06613453131393" y1="-60.020826595922045" x2="234.6539856757978" y2="-63.13879161389202" stroke="#3D3530" stroke-width="0.6" opacity="0.55"/><text x="238.51660272395907" y="-64.17811328654868" text-anchor="start" dominant-baseline="middle" font-size="20" fill="#1F1B16" transform="rotate(0 238.51660272395907 -64.17811328654868)" style="font-family: Georgia, &quot;Times New Roman&quot;, serif; font-weight: 500; letter-spacing: 0.01em;">AmpR</text></g></g><g><path d="M 89.08736856178885 210.96075645184817 A 229 229 0 0 1 -163.25232583014431 160.59165019093737 L -164.97815125598154 148.5469946116665 L -153.27183429467698 150.77382004825998 A 215 215 0 0 0 83.36493259803758 198.179938472401 A 4.8999999999999995 4.8999999999999995 0 0 1 89.86193153452317 200.70088007003025 L 91.57825764841583 204.53418473712497 A 4.8999999999999995 4.8999999999999995 0 0 1 89.08736856178885 210.96075645184817 Z" fill="#d8576b" stroke="#6c2b35" stroke-width="1.3" stroke-linejoin="round" stroke-linecap="round" opacity="1" class="" style="transition: filter 0.15s, opacity 0.15s;"/><g style="pointer-events: none;"><line x1="-47.79095780669498" y1="226.0022662539442" x2="-50.27360496548433" y2="237.7426437216816" stroke="#3D3530" stroke-width="0.6" opacity="0.55"/><text x="-51.101154018414114" y="241.65610287759404" text-anchor="end" dominant-baseline="middle" font-size="20" fill="#1F1B16" transform="rotate(0 -51.101154018414114 241.65610287759404)" style="font-family: Georgia, &quot;Times New Roman&quot;, serif; font-weight: 500; letter-spacing: 0.01em;">ori</text></g></g><g><path d="M -206.2849475332167 17.19070740888918 A 207 207 0 0 1 -206.3204992069471 -16.758627837509525 A 4.8999999999999995 4.8999999999999995 0 0 1 -200.99287505392806 -21.125202426392683 L -196.8158830933813 -20.68618288066854 A 4.8999999999999995 4.8999999999999995 0 0 1 -192.39300225299402 -15.294858092817813 A 193 193 0 0 0 -192.36054683561443 15.697771214519037 A 4.8999999999999995 4.8999999999999995 0 0 1 -196.77212641956606 21.098347431074053 L -200.94818973923344 21.546114279030146 A 4.8999999999999995 4.8999999999999995 0 0 1 -206.2849475332167 17.19070740888918 Z" fill="#fb9f3a" stroke="#7d4f1d" stroke-width="1.3" stroke-linejoin="round" stroke-linecap="round" opacity="1" class="" style="transition: filter 0.15s, opacity 0.15s;"/><g style="pointer-events: none;"><line x1="-208.99988540293717" y1="0.21886424819827108" x2="-220.9998788232015" y2="0.23143061651587515" stroke="#3D3530" stroke-width="0.6" opacity="0.55"/><text x="-224.99987662995628" y="0.23561940595507652" text-anchor="end" dominant-baseline="middle" font-size="20" fill="#1F1B16" transform="rotate(0 -224.99987662995628 0.23561940595507652)" style="font-family: Georgia, &quot;Times New Roman&quot;, serif; font-weight: 500; letter-spacing: 0.01em;">MCS</text></g></g><g><path d="M -215.15232449159174 -129.26901123573592 A 251 251 0 0 1 -189.7723404014007 -164.27860121931553 A 4.8999999999999995 4.8999999999999995 0 0 1 -182.8879415499868 -164.67304222491492 L -179.76673328298176 -161.86269367820773 A 4.8999999999999995 4.8999999999999995 0 0 1 -179.3661881025715 -154.9089105427862 A 237 237 0 0 0 -203.01090402658826 -122.29297954628208 A 4.8999999999999995 4.8999999999999995 0 0 1 -209.74440261169022 -120.51097698162272 L -213.3860995565811 -122.60335442404858 A 4.8999999999999995 4.8999999999999995 0 0 1 -215.15232449159174 -129.26901123573592 Z" fill="#fdca26" stroke="#7e6513" stroke-width="1.3" stroke-linejoin="round" stroke-linecap="round" opacity="1" class="" style="transition: filter 0.15s, opacity 0.15s;"/><g style="pointer-events: none;"><line x1="-204.83691572036668" y1="-148.49524557428563" x2="-214.55250065572005" y2="-155.53849832879723" stroke="#3D3530" stroke-width="0.6" opacity="0.55"/><text x="-217.7910289675045" y="-157.88624924696774" text-anchor="end" dominant-baseline="middle" font-size="20" fill="#1F1B16" transform="rotate(0 -217.7910289675045 -157.88624924696774)" style="font-family: Georgia, &quot;Times New Roman&quot;, serif; font-weight: 500; letter-spacing: 0.01em;">T7 promoter</text></g></g></g><text x="0" y="-8" text-anchor="middle" font-size="32" fill="#1F1B16" style="font-family: Georgia, &quot;Times New Roman&quot;, serif; font-style: italic;">pExample</text><text x="0" y="18" text-anchor="middle" font-size="11" fill="#8A8174" style="font-family: Georgia, &quot;Times New Roman&quot;, serif; letter-spacing: 0.05em;">3.000 bp</text></svg>