<?xml version="1.0" encoding="UTF-8"?>
<svg viewBox="-410 -410 820 820" class="w-full h-full" style="overflow: visible; font-family: Georgia, &quot;Times New Roman&quot;, serif;" xmlns="http://www.w3.org/2000/svg"><rect x="-410" y="-410" width="820" height="820" fill="#F5F1EA"/><g transform="rotate(0)"><circle cx="0" cy="0" r="234" fill="none" stroke="#3D3530" stroke-width="3.8" opacity="0.85"/><g><line x1="1.3967096744275563e-14" y1="-228.1" x2="1.3599702704531357e-14" y2="-222.1" stroke="#3D3530" stroke-width="0.8" opacity="0.55"/><text x="1.225259122546927e-14" y="-200.1" font-size="12" fill="#8A8174" text-anchor="middle" dominant-baseline="middle" transform="rotate(0 1.225259122546927e-14 -200.1)" style="font-family: Georgia, &quot;Times New Roman&quot;, serif; letter-spacing: 0.02em;">1</text></g><g><line x1="115.78435351675377" y1="-196.5288616990069" x2="112.7387326438887" y2="-191.3593168932461" stroke="#3D3530" stroke-width="0.8" opacity="0.55"/><text x="101.57145611005011" y="-172.4043192721231" font-size="12" fill="#8A8174" text-anchor="middle" dominant-baseline="middle" transform="rotate(0 101.57145611005011 -172.4043192721231)" style="font-family: Georgia, &quot;Times New Roman&quot;, serif; letter-spacing: 0.02em;">500</text></g><g><line x1="199.63530919517342" y1="-110.34198349924432" x2="194.38405161003075" y2="-107.43952010163159" stroke="#3D3530" stroke-width="0.8" opacity="0.55"/><text x="175.12944046450767" y="-96.79715431038487" font-size="12" fill="#8A8174" text-anchor="middle" dominant-baseline="middle" transform="rotate(0 175.12944046450767 -96.79715431038487)" style="font-family: Georgia, &quot;Times New Roman&quot;, serif; letter-spacing: 0.02em;">1000</text></g><g><line x1="228.00710549813584" y1="6.509212115298821" x2="222.00954901857068" y2="6.3379921561063925" stroke="#3D3530" stroke-width="0.8" opacity="0.55"/><text x="200.01850859349838" y="5.710185639067488" font-size="12" fill="#8A8174" text-anchor="middle" dominant-baseline="middle" transform="rotate(0 200.01850859349838 5.710185639067488)" style="font-family: Georgia, &quot;Times New Roman&quot;, serif; letter-spacing: 0.02em;">1500</text></g><g><line x1="193.01514818624625" y1="121.55148115363052" x2="187.93802898801093" y2="118.35416029908522" stroke="#3D3530" stroke-width="0.8" opacity="0.55"/><text x="169.32192526114807" y="106.63065049908579" font-size="12" fill="#8A8174" text-anchor="middle" dominant-baseline="middle" transform="rotate(0 169.32192526114807 106.63065049908579)" style="font-family: Georgia, &quot;Times New Roman&quot;, serif; letter-spacing: 0.02em;">2000</text></g><g><line x1="104.38379105439162" y1="202.81428491384207" x2="101.63805345541596" y2="197.47940674863798" stroke="#3D3530" stroke-width="0.8" opacity="0.55"/><text x="91.57034892583852" y="177.91818680955632" font-size="12" fill="#8A8174" text-anchor="middle" dominant-baseline="middle" transform="rotate(0 91.57034892583852 177.91818680955632)" style="font-family: Georgia, &quot;Times New Roman&quot;, serif; letter-spacing: 0.02em;">2500</text></g><g><line x1="-13.256086681698024" y1="227.7144838737477" x2="-12.907395230184704" y2="221.7246245872835" stroke="#3D3530" stroke-width="0.8" opacity="0.55"/><text x="-11.6288599079692" y="199.76180720358138" font-size="12" fill="#8A8174" text-anchor="middle" dominant-baseline="middle" transform="rotate(0 -11.6288599079692 199.76180720358138)" style="font-family: Georgia, &quot;Times New Roman&quot;, serif; letter-spacing: 0.02em;">3000</text></g><g><line x1="-127.21206426668864" y1="189.3322495112966" x2="-123.86584600452235" y2="184.35200620981576" stroke="#3D3530" stroke-width="0.8" opacity="0.55"/><text x="-111.59637904324593" y="166.091114104386" font-size="12" fill="#8A8174" text-anchor="middle" dominant-baseline="middle" transform="rotate(0 -111.59637904324593 166.091114104386)" style="font-family: Georgia, &quot;Times New Roman&quot;, serif; letter-spacing: 0.02em;">3500</text></g><g><line x1="-205.81548615206273" y1="98.33410222293212" x2="-200.40166363162268" y2="95.74749716665157" stroke="#3D3530" stroke-width="0.8" opacity="0.55"/><text x="-180.55098105667582" y="86.26327862695624" font-size="12" fill="#8A8174" text-anchor="middle" dominant-baseline="middle" transform="rotate(0 -180.55098105667582 86.26327862695624)" style="font-family: Georgia, &quot;Times New Roman&quot;, serif; letter-spacing: 0.02em;">4000</text></g><g><line x1="-227.222261791836" y1="-19.99134178093986" x2="-221.24535003931072" y2="-19.465484478503914" stroke="#3D3530" stroke-width="0.8" opacity="0.55"/><text x="-199.33000694671802" y="-17.537341036238782" font-size="12" fill="#8A8174" text-anchor="middle" dominant-baseline="middle" transform="rotate(0 -199.33000694671802 -17.537341036238782)" style="font-family: Georgia, &quot;Times New Roman&quot;, serif; letter-spacing: 0.02em;">4500</text></g><g><line x1="-185.48339387575518" y1="-132.76114113825426" x2="-180.6043918448278" y2="-129.26895855680084" stroke="#3D3530" stroke-width="0.8" opacity="0.55"/><text x="-162.7147177314275" y="-116.46428909147161" font-size="12" fill="#8A8174" text-anchor="middle" dominant-baseline="middle" transform="rotate(0 -162.7147177314275 -116.46428909147161)" style="font-family: Georgia, &quot;Times New Roman&quot;, serif; letter-spacing: 0.02em;">5000</text></g><g style="pointer-events: none;"><defs><path id="hl-path-106" d="M 17.7395849381485 -255.38462586111604 A 256 256 0 0 1 153.6808196347281 204.739360349685" fill="none"/></defs><path d="M 19.262694613697345 -277.3117902221603 A 277.98 277.98 0 0 1 166.8757587580536 222.31815386720876 L 140.48588051140263 187.16056683216127 A 234.02 234.02 0 0 0 16.21647526259966 -233.4574615000718 Z" fill="#7FA67D" stroke="#7FA67D" stroke-width="0.5" stroke-opacity="0.625" fill-opacity="0.25"/><text font-size="13" fill="#7FA67D" style="font-family: Georgia, &quot;Times New Roman&quot;, serif; font-weight: 600; letter-spacing: 0.08em; text-transform: uppercase;"><textPath href="#hl-path-106" startOffset="50%" text-anchor="middle">Package</textPath></text></g><g><path d="M 55.31449893397814 -234.56620858018516 A 241 241 0 0 1 208.2533903738305 -121.29107715658625 A 4.8999999999999995 4.8999999999999995 0 0 1 206.3928020905801 -114.65261115735059 L 202.72126558579214 -112.61304755353497 A 4.8999999999999995 4.8999999999999995 0 0 1 196.01227086947625 -114.49100256610154 A 227 227 0 0 0 52.378215798009684 -220.87444965368252 A 4.8999999999999995 4.8999999999999995 0 0 1 48.6260681764807 -226.74460411153393 L 49.50674728963817 -230.85123342273894 A 4.8999999999999995 4.8999999999999995 0 0 1 55.31449893397814 -234.56620858018516 Z" fill="#6ece58" stroke="#37672c" stroke-width="1.3" stroke-linecap="round" opacity="1" class="" style="transition: filter 0.15s, opacity 0.15s;" stroke-linejoin="round"/><g style="pointer-events: none;"><line x1="144.6296294432101" y1="-195.2722977975108" x2="169.6273431741353" y2="-229.0230653180682" stroke="#3D3530" stroke-width="0.6" opacity="0.55"/><text x="172.0080778151758" y="-232.23742412954985" text-anchor="start" dominant-baseline="middle" font-size="17" fill="#1F1B16" transform="rotate(0 172.0080778151758 -232.23742412954985)" style="font-family: Georgia, &quot;Times New Roman&quot;, serif; font-weight: 500; letter-spacing: 0.01em;">CBh</text></g></g><g><path d="M 223.46254635607193 -102.62212420360636 A 245.9 245.9 0 0 1 239.6352138446999 55.152282687164906 L 223.7272030546909 68.57214167083532 L 216.44156565639628 49.81424149987525 A 222.1 222.1 0 0 0 202.16934627145613 -91.95632348116172 A 8.33 8.33 0 0 1 206.0269326198613 -103.20313917343375 L 212.41079018574163 -106.40094507413382 A 8.33 8.33 0 0 1 223.46254635607193 -102.62212420360636 Z" fill="#1f9e89" stroke="#0f4f44" stroke-width="1.3" stroke-linejoin="round" stroke-linecap="round" opacity="1" class="" style="transition: filter 0.15s, opacity 0.15s;"/><g style="pointer-events: none;"><line x1="243.0381964620413" y1="48.8553483303335" x2="289.1164345972407" y2="58.117959752381395" stroke="#3D3530" stroke-width="0.6" opacity="0.55"/><text x="293.0379867789598" y="58.9062671074493" text-anchor="start" dominant-baseline="middle" font-size="17" fill="#1F1B16" transform="rotate(0 293.0379867789598 58.9062671074493)" style="font-family: Georgia, &quot;Times New Roman&quot;, serif; font-weight: 500; letter-spacing: 0.01em;">mGL</text></g></g><g><path d="M 21.584589000850574 -240.03146776550852 A 241 241 0 0 1 33.764882899717534 -238.6229927789197 L 42.45591857287316 -230.11626404522903 L 31.803437420065894 -224.7610761859534 A 227 227 0 0 0 20.614199763732945 -226.0620595502503 A 4.8999999999999995 4.8999999999999995 0 0 1 16.069569324830614 -231.34255756715942 L 16.360609390222113 -235.53246158519335 A 4.8999999999999995 4.8999999999999995 0 0 1 21.584589000850574 -240.03146776550852 Z" fill="#fdca26" stroke="#7e6513" stroke-width="1.3" stroke-linejoin="round" stroke-linecap="round" opacity="1" class="" style="transition: filter 0.15s, opacity 0.15s;"/><g style="pointer-events: none;"><line x1="30.51256354317576" y1="-241.07671697205365" x2="40.05558753198793" y2="-316.4751963542597" stroke="#3D3530" stroke-width="0.6" opacity="0.55"/><text x="40.55785195245173" y="-320.4435373743758" text-anchor="middle" dominant-baseline="middle" font-size="17" fill="#1F1B16" transform="rotate(0 40.55785195245173 -320.4435373743758)" style="font-family: Georgia, &quot;Times New Roman&quot;, serif; font-weight: 500; letter-spacing: 0.01em;">5' ITR</text></g></g><g><path d="M 168.82700036482464 171.9838479271106 A 241 241 0 0 1 152.61900401309484 186.5165934013672 L 140.47387419736862 187.14457156963397 L 143.75316975507272 175.681604573072 A 227 227 0 0 0 158.8163660876306 162.19236067928628 A 4.8999999999999995 4.8999999999999995 0 0 1 165.78312777216132 162.15290483392286 L 168.7856682492768 165.0896974182371 A 4.8999999999999995 4.8999999999999995 0 0 1 168.82700036482464 171.9838479271106 Z" fill="#fdca26" stroke="#7e6513" stroke-width="1.3" stroke-linejoin="round" stroke-linecap="round" opacity="1" class="" style="transition: filter 0.15s, opacity 0.15s;"/><g style="pointer-events: none;"><line x1="160.26366878073435" y1="182.659673899137" x2="209.0682428127275" y2="238.28443055977954" stroke="#3D3530" stroke-width="0.6" opacity="0.55"/><text x="211.70632789553795" y="241.29117416305752" text-anchor="start" dominant-baseline="middle" font-size="17" fill="#1F1B16" transform="rotate(0 211.70632789553795 241.29117416305752)" style="font-family: Georgia, &quot;Times New Roman&quot;, serif; font-weight: 500; letter-spacing: 0.01em;">3' ITR</text></g></g><g><path d="M -62.42044152810197 232.77604790750445 A 241 241 0 0 1 -216.75723725689056 105.34372357554126 L -214.55927468121092 93.3826410435723 L -204.16553052827453 99.22417116866335 A 227 227 0 0 0 -59.069245409691135 219.17989015128575 A 4.8999999999999995 4.8999999999999995 0 0 1 -55.49730254828458 225.1614074611015 L -56.50242833829232 229.2393630942909 A 4.8999999999999995 4.8999999999999995 0 0 1 -62.42044152810197 232.77604790750445 Z" fill="#bd3786" stroke="#5e1b43" stroke-width="1.3" stroke-linejoin="round" stroke-linecap="round" opacity="1" class="" style="transition: filter 0.15s, opacity 0.15s;"/><g style="pointer-events: none;"><line x1="-156.72637978291831" y1="185.70363992162473" x2="-164.46595409318587" y2="194.87419004121114" stroke="#3D3530" stroke-width="0.6" opacity="0.55"/><text x="-167.0458121966084" y="197.9310400810733" text-anchor="end" dominant-baseline="middle" font-size="17" fill="#1F1B16" transform="rotate(0 -167.0458121966084 197.9310400810733)" style="font-family: Georgia, &quot;Times New Roman&quot;, serif; font-weight: 500; letter-spacing: 0.01em;">AmpR</text></g></g><g><path d="M -235.7659406566533 49.954191278444746 A 241 241 0 0 1 -225.76938646875593 -84.3159779254296 L -215.59193852173212 -90.97316112151802 L -212.6541524000315 -79.41795431150423 A 227 227 0 0 0 -222.12882064182403 46.77378582360378 A 4.8999999999999995 4.8999999999999995 0 0 1 -225.8394375982141 52.67028028520798 L -229.92967320801355 53.62420515453904 A 4.8999999999999995 4.8999999999999995 0 0 1 -235.7659406566533 49.954191278444746 Z" fill="#d8576b" stroke="#6c2b35" stroke-width="1.3" stroke-linejoin="round" stroke-linecap="round" opacity="1" class="" style="transition: filter 0.15s, opacity 0.15s;"/><g style="pointer-events: none;"><line x1="-242.12087172224136" y1="-20.651476374873116" x2="-254.07745798012982" y2="-21.67130236869401" stroke="#3D3530" stroke-width="0.6" opacity="0.55"/><text x="-258.0629867327593" y="-22.01124436663431" text-anchor="end" dominant-baseline="middle" font-size="17" fill="#1F1B16" transform="rotate(0 -258.0629867327593 -22.01124436663431)" style="font-family: Georgia, &quot;Times New Roman&quot;, serif; font-weight: 500; letter-spacing: 0.01em;">ColE1</text></g></g></g><text x="0" y="-8" text-anchor="middle" font-size="32" fill="#1F1B16" style="font-family: Georgia, &quot;Times New Roman&quot;, serif; font-style: italic;">scAAV</text><text x="0" y="18" text-anchor="middle" font-size="11" fill="#8A8174" style="font-family: Georgia, &quot;Times New Roman&quot;, serif; letter-spacing: 0.05em;">5.889 bp</text></svg>